<?xml version="1.0" encoding="UTF-8"?>
<!DOCTYPE svg PUBLIC "-//W3C//DTD SVG 1.1//EN" "http://www.w3.org/Graphics/SVG/1.1/DTD/svg11.dtd">
<svg xmlns="http://www.w3.org/2000/svg" version="1.1" width="408px" height="612px" style="shape-rendering:geometricPrecision; text-rendering:geometricPrecision; image-rendering:optimizeQuality; fill-rule:evenodd; clip-rule:evenodd" xmlns:xlink="http://www.w3.org/1999/xlink">
<g><path style="opacity:0.09" fill="#31617d" d="M 292.5,165.5 C 292.167,165.5 291.833,165.5 291.5,165.5C 270.66,165.169 249.993,165.503 229.5,166.5C 227.284,167.203 225.451,168.536 224,170.5C 221.279,175.496 220.112,180.829 220.5,186.5C 219.131,188.691 218.131,191.025 217.5,193.5C 217.5,192.167 217.5,190.833 217.5,189.5C 218.396,182.583 220.229,175.917 223,169.5C 224.543,167.622 226.376,166.122 228.5,165C 250.004,164.171 271.337,164.337 292.5,165.5 Z"/></g>
<g><path style="opacity:0.571" fill="#5fa3c2" d="M 229.5,166.5 C 249.993,165.503 270.66,165.169 291.5,165.5C 291.5,165.833 291.5,166.167 291.5,166.5C 291.062,167.506 290.396,167.506 289.5,166.5C 269.5,166.5 249.5,166.5 229.5,166.5 Z"/></g>
<g><path style="opacity:1" fill="#6cc4ed" d="M 229.5,166.5 C 249.5,166.5 269.5,166.5 289.5,166.5C 283.588,168.456 277.255,169.123 270.5,168.5C 255.697,167.938 241.031,168.604 226.5,170.5C 225.02,176.109 223.02,181.443 220.5,186.5C 220.112,180.829 221.279,175.496 224,170.5C 225.451,168.536 227.284,167.203 229.5,166.5 Z"/></g>
<g><path style="opacity:1" fill="#4eb0e6" d="M 270.5,168.5 C 270.611,169.117 270.944,169.617 271.5,170C 269.527,170.495 267.527,170.662 265.5,170.5C 253.829,170.333 242.162,170.5 230.5,171C 228.257,174.835 226.757,179.002 226,183.5C 222.424,185.86 220.591,189.193 220.5,193.5C 217.626,200.922 215.626,208.589 214.5,216.5C 213.732,217.263 213.232,218.263 213,219.5C 212.601,219.272 212.435,218.938 212.5,218.5C 213.38,209.985 215.047,201.652 217.5,193.5C 218.131,191.025 219.131,188.691 220.5,186.5C 223.02,181.443 225.02,176.109 226.5,170.5C 241.031,168.604 255.697,167.938 270.5,168.5 Z"/></g>
<g><path style="opacity:0.031" fill="#112e85" d="M 291.5,166.5 C 291.5,166.167 291.5,165.833 291.5,165.5C 291.833,165.5 292.167,165.5 292.5,165.5C 294.783,165.608 296.783,166.441 298.5,168C 310.36,178.694 321.693,189.86 332.5,201.5C 331.833,201.5 331.167,201.5 330.5,201.5C 326.211,196.598 321.378,192.265 316,188.5C 310.074,180.833 303.241,174 295.5,168C 294.552,167.517 293.552,167.351 292.5,167.5C 292.5,166.833 292.167,166.5 291.5,166.5 Z"/></g>
<g><path style="opacity:1" fill="#3dbffb" d="M 289.5,166.5 C 290.396,167.506 291.062,167.506 291.5,166.5C 292.167,166.5 292.5,166.833 292.5,167.5C 290.308,170.55 288.642,173.883 287.5,177.5C 286.542,177.953 285.708,178.619 285,179.5C 283.476,184.882 281.142,189.882 278,194.5C 277.506,196.134 277.34,197.801 277.5,199.5C 275.163,201.507 273.829,204.173 273.5,207.5C 271.088,207.244 269.421,208.244 268.5,210.5C 267.995,205.855 268.495,201.188 270,196.5C 270.98,195.019 272.147,193.685 273.5,192.5C 273.192,191.692 272.692,191.025 272,190.5C 270.989,191.337 269.822,191.67 268.5,191.5C 267.839,186.992 267.339,182.658 267,178.5C 266.167,177.5 265.333,176.5 264.5,175.5C 262.671,176.288 261.004,175.788 259.5,174C 261.833,173.667 264.167,173.333 266.5,173C 264.381,172.658 264.047,171.825 265.5,170.5C 267.527,170.662 269.527,170.495 271.5,170C 270.944,169.617 270.611,169.117 270.5,168.5C 277.255,169.123 283.588,168.456 289.5,166.5 Z"/></g>
<g><path style="opacity:1" fill="#36b5f8" d="M 265.5,170.5 C 264.047,171.825 264.381,172.658 266.5,173C 264.167,173.333 261.833,173.667 259.5,174C 261.004,175.788 262.671,176.288 264.5,175.5C 265.333,176.5 266.167,177.5 267,178.5C 267.339,182.658 267.839,186.992 268.5,191.5C 269.822,191.67 270.989,191.337 272,190.5C 272.692,191.025 273.192,191.692 273.5,192.5C 272.147,193.685 270.98,195.019 270,196.5C 268.495,201.188 267.995,205.855 268.5,210.5C 269.421,208.244 271.088,207.244 273.5,207.5C 273.829,204.173 275.163,201.507 277.5,199.5C 276.345,202.457 275.345,205.457 274.5,208.5C 272.481,209.538 272.147,210.872 273.5,212.5C 273.5,213.167 273.167,213.5 272.5,213.5C 270.457,214.579 269.124,216.246 268.5,218.5C 266.836,219.743 265.669,221.41 265,223.5C 263.556,217.753 263.723,212.253 265.5,207C 264.5,206.167 263.5,205.333 262.5,204.5C 264.04,203.468 264.54,202.135 264,200.5C 262.841,201.566 262.008,201.233 261.5,199.5C 261.703,197.956 262.37,196.622 263.5,195.5C 262.5,194.167 261.5,192.833 260.5,191.5C 259.914,191.709 259.414,192.043 259,192.5C 256.825,190.306 255.492,187.639 255,184.5C 253.175,183.897 251.341,183.23 249.5,182.5C 249.709,181.914 250.043,181.414 250.5,181C 248.578,179.58 247.245,177.747 246.5,175.5C 242.843,174.868 239.343,173.868 236,172.5C 233.594,172.703 231.594,173.703 230,175.5C 228.806,180.416 227.139,185.416 225,190.5C 223.6,191.748 222.1,192.748 220.5,193.5C 220.591,189.193 222.424,185.86 226,183.5C 226.757,179.002 228.257,174.835 230.5,171C 242.162,170.5 253.829,170.333 265.5,170.5 Z"/></g>
<g><path style="opacity:1" fill="#34b2f9" d="M 261.5,199.5 C 260.167,199.5 258.833,199.5 257.5,199.5C 257.719,198.325 257.386,197.325 256.5,196.5C 255.232,197.428 253.899,197.595 252.5,197C 250.403,195.39 248.07,194.223 245.5,193.5C 245.709,192.914 246.043,192.414 246.5,192C 244.19,191.503 241.857,191.337 239.5,191.5C 238.121,191.329 236.454,191.162 234.5,191C 235.946,188.507 235.279,186.673 232.5,185.5C 231.5,186 230.5,186.5 229.5,187C 228.87,188.892 227.87,190.559 226.5,192C 227.34,193.666 226.84,193.833 225,192.5C 224.381,195.577 222.881,198.077 220.5,200C 218.182,204.824 216.682,209.991 216,215.5C 215.617,216.056 215.117,216.389 214.5,216.5C 215.626,208.589 217.626,200.922 220.5,193.5C 222.1,192.748 223.6,191.748 225,190.5C 227.139,185.416 228.806,180.416 230,175.5C 231.594,173.703 233.594,172.703 236,172.5C 239.343,173.868 242.843,174.868 246.5,175.5C 247.245,177.747 248.578,179.58 250.5,181C 250.043,181.414 249.709,181.914 249.5,182.5C 251.341,183.23 253.175,183.897 255,184.5C 255.492,187.639 256.825,190.306 259,192.5C 259.414,192.043 259.914,191.709 260.5,191.5C 261.5,192.833 262.5,194.167 263.5,195.5C 262.37,196.622 261.703,197.956 261.5,199.5 Z"/></g>
<g><path style="opacity:1" fill="#185ad3" d="M 292.5,167.5 C 293.552,167.351 294.552,167.517 295.5,168C 303.241,174 310.074,180.833 316,188.5C 321.378,192.265 326.211,196.598 330.5,201.5C 327.569,199.909 324.902,197.909 322.5,195.5C 314.591,190.594 307.925,184.261 302.5,176.5C 301.675,175.614 300.675,175.281 299.5,175.5C 298.587,171.704 296.42,170.371 293,171.5C 292.45,175.191 290.617,177.857 287.5,179.5C 287.5,178.833 287.5,178.167 287.5,177.5C 288.642,173.883 290.308,170.55 292.5,167.5 Z"/></g>
<g><path style="opacity:1" fill="#2faffa" d="M 239.5,191.5 C 241.857,191.337 244.19,191.503 246.5,192C 246.043,192.414 245.709,192.914 245.5,193.5C 248.07,194.223 250.403,195.39 252.5,197C 253.899,197.595 255.232,197.428 256.5,196.5C 257.386,197.325 257.719,198.325 257.5,199.5C 258.833,199.5 260.167,199.5 261.5,199.5C 262.008,201.233 262.841,201.566 264,200.5C 264.54,202.135 264.04,203.468 262.5,204.5C 263.5,205.333 264.5,206.167 265.5,207C 263.723,212.253 263.556,217.753 265,223.5C 265.669,221.41 266.836,219.743 268.5,218.5C 267.112,224.026 264.778,229.026 261.5,233.5C 260.778,233.918 260.278,234.584 260,235.5C 257.86,231.167 258.36,227.333 261.5,224C 259.251,221.994 258.584,219.66 259.5,217C 258.139,215.073 257.306,212.906 257,210.5C 256.193,214.449 255.693,214.449 255.5,210.5C 254.448,210.649 253.448,210.483 252.5,210C 254.439,209.092 255.439,207.592 255.5,205.5C 252.52,204.975 249.687,204.975 247,205.5C 246.167,205.167 245.333,204.833 244.5,204.5C 245.85,202.98 247.183,202.313 248.5,202.5C 247.311,201.571 245.978,201.238 244.5,201.5C 244.357,199.738 244.691,198.071 245.5,196.5C 243.604,195.534 241.604,195.201 239.5,195.5C 239.5,194.167 239.5,192.833 239.5,191.5 Z"/></g>
<g><path style="opacity:1" fill="#2e9af3" d="M 287.5,177.5 C 287.5,178.167 287.5,178.833 287.5,179.5C 284.722,186.389 281.389,193.056 277.5,199.5C 277.34,197.801 277.506,196.134 278,194.5C 281.142,189.882 283.476,184.882 285,179.5C 285.708,178.619 286.542,177.953 287.5,177.5 Z"/></g>
<g><path style="opacity:1" fill="#035df5" d="M 299.5,175.5 C 301.428,178.598 303.928,181.265 307,183.5C 306.927,187.361 308.76,189.694 312.5,190.5C 309.33,193.177 308.33,196.511 309.5,200.5C 309.167,201.167 308.833,201.833 308.5,202.5C 304.732,203.24 301.232,204.573 298,206.5C 297.228,206.355 296.561,206.022 296,205.5C 292.064,209.047 287.564,210.38 282.5,209.5C 280.735,206.877 280.068,203.877 280.5,200.5C 282.505,195.566 284.671,190.566 287,185.5C 287.495,183.527 287.662,181.527 287.5,179.5C 290.617,177.857 292.45,175.191 293,171.5C 296.42,170.371 298.587,171.704 299.5,175.5 Z"/></g>
<g><path style="opacity:1" fill="#2ba9f9" d="M 239.5,191.5 C 239.5,192.833 239.5,194.167 239.5,195.5C 241.604,195.201 243.604,195.534 245.5,196.5C 244.691,198.071 244.357,199.738 244.5,201.5C 245.978,201.238 247.311,201.571 248.5,202.5C 247.183,202.313 245.85,202.98 244.5,204.5C 245.333,204.833 246.167,205.167 247,205.5C 249.687,204.975 252.52,204.975 255.5,205.5C 255.439,207.592 254.439,209.092 252.5,210C 253.448,210.483 254.448,210.649 255.5,210.5C 255.693,214.449 256.193,214.449 257,210.5C 257.306,212.906 258.139,215.073 259.5,217C 258.584,219.66 259.251,221.994 261.5,224C 258.36,227.333 257.86,231.167 260,235.5C 260.278,234.584 260.778,233.918 261.5,233.5C 259.416,239.987 257.082,246.321 254.5,252.5C 253.272,253.306 252.272,254.306 251.5,255.5C 251.5,255.167 251.5,254.833 251.5,254.5C 251.5,251.167 251.5,247.833 251.5,244.5C 252.833,244.5 254.167,244.5 255.5,244.5C 255.188,240.325 255.855,236.325 257.5,232.5C 256.469,228.971 254.469,226.138 251.5,224C 250.062,223.781 248.729,223.281 247.5,222.5C 249.104,220.821 249.771,218.821 249.5,216.5C 246.086,216.264 242.753,215.598 239.5,214.5C 246.576,213.459 246.91,212.126 240.5,210.5C 239.808,211.025 239.308,211.692 239,212.5C 236.107,210.562 235.607,208.562 237.5,206.5C 235.316,207.108 233.316,206.441 231.5,204.5C 232.025,203.808 232.692,203.308 233.5,203C 230.436,201.068 227.102,200.401 223.5,201C 223.957,203.943 222.957,206.61 220.5,209C 219.721,212.842 218.887,216.675 218,220.5C 216.931,220.36 215.764,220.36 214.5,220.5C 213.47,225.142 211.803,228.809 209.5,231.5C 209.862,226.897 210.862,222.564 212.5,218.5C 212.435,218.938 212.601,219.272 213,219.5C 213.232,218.263 213.732,217.263 214.5,216.5C 215.117,216.389 215.617,216.056 216,215.5C 216.682,209.991 218.182,204.824 220.5,200C 222.881,198.077 224.381,195.577 225,192.5C 226.84,193.833 227.34,193.666 226.5,192C 227.87,190.559 228.87,188.892 229.5,187C 230.5,186.5 231.5,186 232.5,185.5C 235.279,186.673 235.946,188.507 234.5,191C 236.454,191.162 238.121,191.329 239.5,191.5 Z"/></g>
<g><path style="opacity:1" fill="#1e67d5" d="M 287.5,179.5 C 287.662,181.527 287.495,183.527 287,185.5C 284.671,190.566 282.505,195.566 280.5,200.5C 278.602,202.41 277.769,204.743 278,207.5C 283.327,211.828 288.327,216.494 293,221.5C 294.929,225.914 297.429,229.914 300.5,233.5C 297.105,230.098 293.438,227.098 289.5,224.5C 289.5,224.167 289.5,223.833 289.5,223.5C 285.909,218.732 282.075,214.065 278,209.5C 276.989,208.663 275.822,208.33 274.5,208.5C 275.345,205.457 276.345,202.457 277.5,199.5C 281.389,193.056 284.722,186.389 287.5,179.5 Z"/></g>
<g><path style="opacity:1" fill="#0367f9" d="M 299.5,175.5 C 300.675,175.281 301.675,175.614 302.5,176.5C 307.925,184.261 314.591,190.594 322.5,195.5C 322.5,197.167 322.5,198.833 322.5,200.5C 321.448,200.351 320.448,200.517 319.5,201C 320.424,201.85 320.424,202.85 319.5,204C 321.442,203.833 323.109,204.833 324.5,207C 322.395,209.885 322.395,212.885 324.5,216C 324.167,216.333 323.833,216.667 323.5,217C 320.111,216.335 316.778,215.168 313.5,213.5C 311.176,213.877 310.509,214.877 311.5,216.5C 306.528,217.639 302.861,220.472 300.5,225C 299.207,225.49 297.873,225.657 296.5,225.5C 295.956,223.42 295.122,221.42 294,219.5C 291.618,217.454 289.618,215.121 288,212.5C 285.791,212.011 283.958,211.011 282.5,209.5C 287.564,210.38 292.064,209.047 296,205.5C 296.561,206.022 297.228,206.355 298,206.5C 301.232,204.573 304.732,203.24 308.5,202.5C 308.833,201.833 309.167,201.167 309.5,200.5C 308.33,196.511 309.33,193.177 312.5,190.5C 308.76,189.694 306.927,187.361 307,183.5C 303.928,181.265 301.428,178.598 299.5,175.5 Z"/></g>
<g><path style="opacity:1" fill="#066cf7" d="M 322.5,195.5 C 324.902,197.909 327.569,199.909 330.5,201.5C 331.167,201.5 331.833,201.5 332.5,201.5C 334.142,205.121 336.142,208.454 338.5,211.5C 338.058,215.847 337.225,216.18 336,212.5C 334.451,215.312 333.618,218.312 333.5,221.5C 332.325,221.281 331.325,221.614 330.5,222.5C 332.241,225.764 331.241,227.597 327.5,228C 325.606,229.101 324.939,230.434 325.5,232C 323.422,234.134 321.588,233.968 320,231.5C 317.031,232.603 316.864,233.936 319.5,235.5C 317.659,236.23 315.825,236.897 314,237.5C 311.823,237.707 309.657,237.04 307.5,235.5C 305.833,234.833 304.167,234.167 302.5,233.5C 301.833,233.5 301.167,233.5 300.5,233.5C 297.429,229.914 294.929,225.914 293,221.5C 288.327,216.494 283.327,211.828 278,207.5C 277.769,204.743 278.602,202.41 280.5,200.5C 280.068,203.877 280.735,206.877 282.5,209.5C 283.958,211.011 285.791,212.011 288,212.5C 289.618,215.121 291.618,217.454 294,219.5C 295.122,221.42 295.956,223.42 296.5,225.5C 297.873,225.657 299.207,225.49 300.5,225C 302.861,220.472 306.528,217.639 311.5,216.5C 310.509,214.877 311.176,213.877 313.5,213.5C 316.778,215.168 320.111,216.335 323.5,217C 323.833,216.667 324.167,216.333 324.5,216C 322.395,212.885 322.395,209.885 324.5,207C 323.109,204.833 321.442,203.833 319.5,204C 320.424,202.85 320.424,201.85 319.5,201C 320.448,200.517 321.448,200.351 322.5,200.5C 322.5,198.833 322.5,197.167 322.5,195.5 Z"/></g>
<g><path style="opacity:1" fill="#23a4fa" d="M 251.5,254.5 C 251.081,250.533 250.081,246.7 248.5,243C 248.833,242.667 249.167,242.333 249.5,242C 247.556,238.39 245.223,235.057 242.5,232C 241.101,231.405 239.768,231.572 238.5,232.5C 237.749,231.624 237.249,230.624 237,229.5C 236.692,230.308 236.192,230.975 235.5,231.5C 230.619,227.142 225.285,226.142 219.5,228.5C 220.246,229.736 220.579,231.07 220.5,232.5C 218.55,232.923 216.55,233.256 214.5,233.5C 209.435,241.903 207.435,241.236 208.5,231.5C 208.833,231.5 209.167,231.5 209.5,231.5C 211.803,228.809 213.47,225.142 214.5,220.5C 215.764,220.36 216.931,220.36 218,220.5C 218.887,216.675 219.721,212.842 220.5,209C 222.957,206.61 223.957,203.943 223.5,201C 227.102,200.401 230.436,201.068 233.5,203C 232.692,203.308 232.025,203.808 231.5,204.5C 233.316,206.441 235.316,207.108 237.5,206.5C 235.607,208.562 236.107,210.562 239,212.5C 239.308,211.692 239.808,211.025 240.5,210.5C 246.91,212.126 246.576,213.459 239.5,214.5C 242.753,215.598 246.086,216.264 249.5,216.5C 249.771,218.821 249.104,220.821 247.5,222.5C 248.729,223.281 250.062,223.781 251.5,224C 254.469,226.138 256.469,228.971 257.5,232.5C 255.855,236.325 255.188,240.325 255.5,244.5C 254.167,244.5 252.833,244.5 251.5,244.5C 251.5,247.833 251.5,251.167 251.5,254.5 Z"/></g>
<g><path style="opacity:1" fill="#0473fb" d="M 338.5,211.5 C 342.146,213.482 345.146,216.149 347.5,219.5C 347.34,221.199 347.506,222.866 348,224.5C 353.26,227.87 354.427,232.204 351.5,237.5C 351.92,239.326 351.92,241.326 351.5,243.5C 348.525,243.307 346.025,244.307 344,246.5C 342.6,245.884 341.1,245.551 339.5,245.5C 335.619,246.36 331.785,247.36 328,248.5C 325.81,247.416 324.144,248.083 323,250.5C 316.655,246.654 311.488,241.654 307.5,235.5C 309.657,237.04 311.823,237.707 314,237.5C 315.825,236.897 317.659,236.23 319.5,235.5C 316.864,233.936 317.031,232.603 320,231.5C 321.588,233.968 323.422,234.134 325.5,232C 324.939,230.434 325.606,229.101 327.5,228C 331.241,227.597 332.241,225.764 330.5,222.5C 331.325,221.614 332.325,221.281 333.5,221.5C 333.618,218.312 334.451,215.312 336,212.5C 337.225,216.18 338.058,215.847 338.5,211.5 Z"/></g>
<g><path style="opacity:0.325" fill="#183680" d="M 274.5,208.5 C 275.822,208.33 276.989,208.663 278,209.5C 282.075,214.065 285.909,218.732 289.5,223.5C 288.761,223.631 288.094,223.464 287.5,223C 284.066,218.81 280.4,214.81 276.5,211C 275.002,210.415 274.002,210.915 273.5,212.5C 272.147,210.872 272.481,209.538 274.5,208.5 Z"/></g>
<g><path style="opacity:0.984" fill="#1c54b3" d="M 332.5,201.5 C 343.603,211.684 354.27,222.351 364.5,233.5C 364.5,234.5 364.5,235.5 364.5,236.5C 366.619,236.468 367.952,237.468 368.5,239.5C 367.448,239.649 366.448,239.483 365.5,239C 361.515,233.508 356.849,228.674 351.5,224.5C 349.464,223.374 348.13,221.707 347.5,219.5C 345.146,216.149 342.146,213.482 338.5,211.5C 336.142,208.454 334.142,205.121 332.5,201.5 Z"/></g>
<g><path style="opacity:1" fill="#1e9efb" d="M 251.5,254.5 C 251.5,254.833 251.5,255.167 251.5,255.5C 250.539,260.406 248.539,264.74 245.5,268.5C 244.624,268.631 243.957,268.298 243.5,267.5C 245.066,265.038 245.399,262.538 244.5,260C 245.167,259.667 245.833,259.333 246.5,259C 244.289,257.418 242.955,255.251 242.5,252.5C 242.888,250.359 242.888,248.359 242.5,246.5C 240.582,243.894 237.916,242.894 234.5,243.5C 234.5,242.167 234.5,240.833 234.5,239.5C 233.325,239.719 232.325,239.386 231.5,238.5C 231.072,235.757 229.905,233.424 228,231.5C 226.318,233.554 224.651,233.221 223,230.5C 222.292,231.381 221.458,232.047 220.5,232.5C 220.579,231.07 220.246,229.736 219.5,228.5C 225.285,226.142 230.619,227.142 235.5,231.5C 236.192,230.975 236.692,230.308 237,229.5C 237.249,230.624 237.749,231.624 238.5,232.5C 239.768,231.572 241.101,231.405 242.5,232C 245.223,235.057 247.556,238.39 249.5,242C 249.167,242.333 248.833,242.667 248.5,243C 250.081,246.7 251.081,250.533 251.5,254.5 Z"/></g>
<g><path style="opacity:0.761" fill="#264e85" d="M 217.5,189.5 C 217.5,190.833 217.5,192.167 217.5,193.5C 215.047,201.652 213.38,209.985 212.5,218.5C 210.862,222.564 209.862,226.897 209.5,231.5C 209.167,231.5 208.833,231.5 208.5,231.5C 208.167,231.5 207.833,231.5 207.5,231.5C 210.228,217.26 213.561,203.26 217.5,189.5 Z"/></g>
<g><path style="opacity:1" fill="#0879fa" d="M 347.5,219.5 C 348.13,221.707 349.464,223.374 351.5,224.5C 352.02,227.193 353.52,229.193 356,230.5C 356.711,232.899 356.544,235.232 355.5,237.5C 357.741,237.498 360.074,237.832 362.5,238.5C 361.167,239.833 361.167,241.167 362.5,242.5C 360.742,244.651 359.076,246.817 357.5,249C 358.167,249.333 358.833,249.667 359.5,250C 356.964,250.339 354.464,250.839 352,251.5C 350.989,251.108 350.489,250.441 350.5,249.5C 350.555,255.098 347.555,257.764 341.5,257.5C 341.778,259.346 341.111,260.68 339.5,261.5C 338.263,258.971 336.429,256.971 334,255.5C 331.976,255.8 331.476,256.633 332.5,258C 330.866,258.494 329.199,258.66 327.5,258.5C 325.056,256.411 322.723,254.078 320.5,251.5C 317.607,249.555 314.607,247.889 311.5,246.5C 309.693,241.356 306.693,237.023 302.5,233.5C 304.167,234.167 305.833,234.833 307.5,235.5C 311.488,241.654 316.655,246.654 323,250.5C 324.144,248.083 325.81,247.416 328,248.5C 331.785,247.36 335.619,246.36 339.5,245.5C 341.1,245.551 342.6,245.884 344,246.5C 346.025,244.307 348.525,243.307 351.5,243.5C 351.92,241.326 351.92,239.326 351.5,237.5C 354.427,232.204 353.26,227.87 348,224.5C 347.506,222.866 347.34,221.199 347.5,219.5 Z"/></g>
<g><path style="opacity:0.145" fill="#1c4983" d="M 272.5,213.5 C 267.245,227 261.245,240 254.5,252.5C 257.082,246.321 259.416,239.987 261.5,233.5C 264.778,229.026 267.112,224.026 268.5,218.5C 269.124,216.246 270.457,214.579 272.5,213.5 Z"/></g>
<g><path style="opacity:1" fill="#1c94f7" d="M 245.5,268.5 C 243.97,272.585 242.136,276.585 240,280.5C 239.338,282.813 238.838,285.146 238.5,287.5C 237.728,288.694 236.728,289.694 235.5,290.5C 236.116,284.489 237.45,278.656 239.5,273C 240.049,270.09 239.383,267.257 237.5,264.5C 233.594,261.411 229.594,258.577 225.5,256C 224.373,254.247 223.373,252.413 222.5,250.5C 221.349,249.269 220.183,249.269 219,250.5C 217.783,249.614 216.449,248.614 215,247.5C 211.094,249.36 208.594,252.36 207.5,256.5C 205.5,258.5 203.5,260.5 201.5,262.5C 202.007,258.14 202.673,253.807 203.5,249.5C 204.847,246.337 206.014,243.004 207,239.5C 207.497,237.19 207.663,234.857 207.5,232.5C 207.5,232.167 207.5,231.833 207.5,231.5C 207.833,231.5 208.167,231.5 208.5,231.5C 207.435,241.236 209.435,241.903 214.5,233.5C 216.55,233.256 218.55,232.923 220.5,232.5C 221.458,232.047 222.292,231.381 223,230.5C 224.651,233.221 226.318,233.554 228,231.5C 229.905,233.424 231.072,235.757 231.5,238.5C 232.325,239.386 233.325,239.719 234.5,239.5C 234.5,240.833 234.5,242.167 234.5,243.5C 237.916,242.894 240.582,243.894 242.5,246.5C 242.888,248.359 242.888,250.359 242.5,252.5C 242.955,255.251 244.289,257.418 246.5,259C 245.833,259.333 245.167,259.667 244.5,260C 245.399,262.538 245.066,265.038 243.5,267.5C 243.957,268.298 244.624,268.631 245.5,268.5 Z"/></g>
<g><path style="opacity:0.965" fill="#1e479e" d="M 289.5,224.5 C 293.438,227.098 297.105,230.098 300.5,233.5C 301.167,233.5 301.833,233.5 302.5,233.5C 306.693,237.023 309.693,241.356 311.5,246.5C 303.908,239.575 296.575,232.242 289.5,224.5 Z"/></g>
<g><path style="opacity:0.384" fill="#1f3f87" d="M 207.5,232.5 C 207.663,234.857 207.497,237.19 207,239.5C 206.014,243.004 204.847,246.337 203.5,249.5C 203.636,243.452 204.97,237.785 207.5,232.5 Z"/></g>
<g><path style="opacity:1" fill="#077ffa" d="M 351.5,224.5 C 356.849,228.674 361.515,233.508 365.5,239C 366.448,239.483 367.448,239.649 368.5,239.5C 368.201,241.604 368.534,243.604 369.5,245.5C 372.251,248.235 375.085,250.901 378,253.5C 378.908,257.489 378.241,261.155 376,264.5C 375.29,263.027 374.124,262.36 372.5,262.5C 373.188,259.381 372.355,259.047 370,261.5C 369.667,261.167 369.333,260.833 369,260.5C 367.256,263.244 365.423,265.91 363.5,268.5C 361.765,267.943 360.098,267.61 358.5,267.5C 357.122,269.213 355.455,270.547 353.5,271.5C 350.18,270.703 346.846,270.036 343.5,269.5C 343.5,268.167 343.5,266.833 343.5,265.5C 341.488,266.014 339.488,266.18 337.5,266C 335.008,263.895 332.341,262.061 329.5,260.5C 328.833,259.833 328.167,259.167 327.5,258.5C 329.199,258.66 330.866,258.494 332.5,258C 331.476,256.633 331.976,255.8 334,255.5C 336.429,256.971 338.263,258.971 339.5,261.5C 341.111,260.68 341.778,259.346 341.5,257.5C 347.555,257.764 350.555,255.098 350.5,249.5C 350.489,250.441 350.989,251.108 352,251.5C 354.464,250.839 356.964,250.339 359.5,250C 358.833,249.667 358.167,249.333 357.5,249C 359.076,246.817 360.742,244.651 362.5,242.5C 361.167,241.167 361.167,239.833 362.5,238.5C 360.074,237.832 357.741,237.498 355.5,237.5C 356.544,235.232 356.711,232.899 356,230.5C 353.52,229.193 352.02,227.193 351.5,224.5 Z"/></g>
<g><path style="opacity:1" fill="#128afa" d="M 235.5,290.5 C 234.357,294.595 233.024,298.595 231.5,302.5C 231.5,302.833 231.5,303.167 231.5,303.5C 230.833,303.5 230.167,303.5 229.5,303.5C 229.505,299.466 229.838,295.466 230.5,291.5C 232.293,291.116 233.293,289.95 233.5,288C 232.427,286.584 232.427,285.25 233.5,284C 232.833,283.667 232.167,283.333 231.5,283C 232.428,282.612 233.095,281.945 233.5,281C 233.108,279.989 232.441,279.489 231.5,279.5C 232.509,276.474 231.509,274.141 228.5,272.5C 227.702,270.922 227.202,269.256 227,267.5C 225.933,266.809 224.766,266.309 223.5,266C 221.5,263.333 219.5,260.667 217.5,258C 216.552,257.517 215.552,257.351 214.5,257.5C 214.872,254.978 214.039,252.978 212,251.5C 211.505,253.473 211.338,255.473 211.5,257.5C 210.041,257.567 208.708,257.234 207.5,256.5C 208.594,252.36 211.094,249.36 215,247.5C 216.449,248.614 217.783,249.614 219,250.5C 220.183,249.269 221.349,249.269 222.5,250.5C 223.373,252.413 224.373,254.247 225.5,256C 229.594,258.577 233.594,261.411 237.5,264.5C 239.383,267.257 240.049,270.09 239.5,273C 237.45,278.656 236.116,284.489 235.5,290.5 Z"/></g>
<g><path style="opacity:0.42" fill="#1a377b" d="M 364.5,233.5 C 371.175,239.176 377.175,245.509 382.5,252.5C 380.589,251.925 378.922,250.925 377.5,249.5C 375.234,245.564 372.234,242.231 368.5,239.5C 367.952,237.468 366.619,236.468 364.5,236.5C 364.5,235.5 364.5,234.5 364.5,233.5 Z"/></g>
<g><path style="opacity:0.91" fill="#2258b3" d="M 311.5,246.5 C 314.607,247.889 317.607,249.555 320.5,251.5C 322.723,254.078 325.056,256.411 327.5,258.5C 328.167,259.167 328.833,259.833 329.5,260.5C 330.122,261.627 330.955,262.627 332,263.5C 332.765,265.066 332.598,266.399 331.5,267.5C 331.727,265.067 330.727,263.401 328.5,262.5C 326.264,261.611 324.264,260.278 322.5,258.5C 318.443,254.78 314.776,250.78 311.5,246.5 Z"/></g>
<g><path style="opacity:1" fill="#1685fa" d="M 230.5,291.5 C 228.175,284.647 224.009,278.981 218,274.5C 217.517,273.552 217.351,272.552 217.5,271.5C 215.143,271.337 212.81,271.503 210.5,272C 208.939,272.318 207.772,273.151 207,274.5C 205.235,273.761 203.235,273.761 201,274.5C 200.667,277.5 200.333,280.5 200,283.5C 197.444,288.671 195.61,294.004 194.5,299.5C 195.543,291.096 196.876,282.763 198.5,274.5C 199.488,270.516 200.488,266.516 201.5,262.5C 203.5,260.5 205.5,258.5 207.5,256.5C 208.708,257.234 210.041,257.567 211.5,257.5C 211.338,255.473 211.505,253.473 212,251.5C 214.039,252.978 214.872,254.978 214.5,257.5C 215.552,257.351 216.552,257.517 217.5,258C 219.5,260.667 221.5,263.333 223.5,266C 224.766,266.309 225.933,266.809 227,267.5C 227.202,269.256 227.702,270.922 228.5,272.5C 231.509,274.141 232.509,276.474 231.5,279.5C 232.441,279.489 233.108,279.989 233.5,281C 233.095,281.945 232.428,282.612 231.5,283C 232.167,283.333 232.833,283.667 233.5,284C 232.427,285.25 232.427,286.584 233.5,288C 233.293,289.95 232.293,291.116 230.5,291.5 Z"/></g>
<g><path style="opacity:0.663" fill="#1a3d84" d="M 203.5,249.5 C 202.673,253.807 202.007,258.14 201.5,262.5C 200.488,266.516 199.488,270.516 198.5,274.5C 197.167,278.5 195.833,282.5 194.5,286.5C 196.169,277.486 198.003,268.486 200,259.5C 200.701,255.891 201.868,252.558 203.5,249.5 Z"/></g>
<g><path style="opacity:1" fill="#0e7efa" d="M 230.5,291.5 C 229.838,295.466 229.505,299.466 229.5,303.5C 229.072,307.244 227.405,310.244 224.5,312.5C 226.112,308.588 225.779,304.921 223.5,301.5C 224.767,299.629 224.767,297.796 223.5,296C 224.833,295.333 225.833,294.333 226.5,293C 226.5,291.333 226.5,289.667 226.5,288C 222.129,287.828 217.796,287.328 213.5,286.5C 214.052,284.997 214.052,283.331 213.5,281.5C 208.946,281.538 204.779,282.871 201,285.5C 199.178,290.48 197.678,295.48 196.5,300.5C 196.353,304.849 194.686,308.516 191.5,311.5C 193.096,307.643 194.096,303.643 194.5,299.5C 195.61,294.004 197.444,288.671 200,283.5C 200.333,280.5 200.667,277.5 201,274.5C 203.235,273.761 205.235,273.761 207,274.5C 207.772,273.151 208.939,272.318 210.5,272C 212.81,271.503 215.143,271.337 217.5,271.5C 217.351,272.552 217.517,273.552 218,274.5C 224.009,278.981 228.175,284.647 230.5,291.5 Z"/></g>
<g><path style="opacity:0.333" fill="#1e5196" d="M 254.5,252.5 C 249.94,264.613 244.607,276.28 238.5,287.5C 238.838,285.146 239.338,282.813 240,280.5C 242.136,276.585 243.97,272.585 245.5,268.5C 248.539,264.74 250.539,260.406 251.5,255.5C 252.272,254.306 253.272,253.306 254.5,252.5 Z"/></g>
<g><path style="opacity:1" fill="#3381da" d="M 331.5,267.5 C 330.985,269.894 330.319,272.228 329.5,274.5C 328.504,274.414 327.671,274.748 327,275.5C 325.982,280.211 323.482,283.878 319.5,286.5C 317.136,289.699 314.97,293.032 313,296.5C 311.989,297.337 310.822,297.67 309.5,297.5C 315.682,286.652 323.015,276.652 331.5,267.5 Z"/></g>
<g><path style="opacity:1" fill="#0a86fa" d="M 372.5,262.5 C 370.859,264.287 369.859,266.454 369.5,269C 370.285,270.79 370.285,272.457 369.5,274C 370.313,275.314 371.313,276.481 372.5,277.5C 369.489,278.842 366.489,279.175 363.5,278.5C 361.035,279.132 359.369,280.632 358.5,283C 356.899,283.273 355.399,283.773 354,284.5C 353.667,284.167 353.333,283.833 353,283.5C 351.812,284.563 351.312,285.897 351.5,287.5C 348.323,288.677 345.157,288.677 342,287.5C 334.917,290.462 329.751,288.295 326.5,281C 327.03,278.557 328.03,276.39 329.5,274.5C 330.319,272.228 330.985,269.894 331.5,267.5C 332.598,266.399 332.765,265.066 332,263.5C 330.955,262.627 330.122,261.627 329.5,260.5C 332.341,262.061 335.008,263.895 337.5,266C 339.488,266.18 341.488,266.014 343.5,265.5C 343.5,266.833 343.5,268.167 343.5,269.5C 346.846,270.036 350.18,270.703 353.5,271.5C 355.455,270.547 357.122,269.213 358.5,267.5C 360.098,267.61 361.765,267.943 363.5,268.5C 365.423,265.91 367.256,263.244 369,260.5C 369.333,260.833 369.667,261.167 370,261.5C 372.355,259.047 373.188,259.381 372.5,262.5 Z"/></g>
<g><path style="opacity:1" fill="#0b78fc" d="M 224.5,312.5 C 223.686,314.631 223.186,316.964 223,319.5C 222.148,320.571 221.315,321.571 220.5,322.5C 220.955,318.575 220.955,314.742 220.5,311C 220.879,308.908 221.546,306.908 222.5,305C 221.511,301.288 219.344,299.788 216,300.5C 213.817,298.924 211.651,297.258 209.5,295.5C 207.251,295.403 204.918,295.57 202.5,296C 203.849,294.365 203.682,292.865 202,291.5C 200.199,293.138 200.032,294.972 201.5,297C 200.99,298.826 200.156,298.993 199,297.5C 198.148,298.571 197.315,299.571 196.5,300.5C 197.678,295.48 199.178,290.48 201,285.5C 204.779,282.871 208.946,281.538 213.5,281.5C 214.052,283.331 214.052,284.997 213.5,286.5C 217.796,287.328 222.129,287.828 226.5,288C 226.5,289.667 226.5,291.333 226.5,293C 225.833,294.333 224.833,295.333 223.5,296C 224.767,297.796 224.767,299.629 223.5,301.5C 225.779,304.921 226.112,308.588 224.5,312.5 Z"/></g>
<g><path style="opacity:1" fill="#0f8cfa" d="M 368.5,239.5 C 372.234,242.231 375.234,245.564 377.5,249.5C 378.965,252.132 380.632,254.632 382.5,257C 383.87,261.88 383.703,266.713 382,271.5C 375.871,279.469 368.705,286.135 360.5,291.5C 353.753,295.378 346.753,298.878 339.5,302C 338.198,305.134 335.865,306.968 332.5,307.5C 331.081,310.418 328.748,311.918 325.5,312C 324.167,314 322.833,316 321.5,318C 320.234,318.309 319.067,318.809 318,319.5C 317.3,317.968 316.134,316.968 314.5,316.5C 313.304,316.846 313.304,317.346 314.5,318C 310.995,319.631 307.662,320.798 304.5,321.5C 303.447,320.562 302.78,319.395 302.5,318C 305.138,316.414 307.805,314.08 310.5,311C 309.692,310.692 309.025,310.192 308.5,309.5C 309.433,305.571 309.766,301.571 309.5,297.5C 310.822,297.67 311.989,297.337 313,296.5C 314.97,293.032 317.136,289.699 319.5,286.5C 323.482,283.878 325.982,280.211 327,275.5C 327.671,274.748 328.504,274.414 329.5,274.5C 328.03,276.39 327.03,278.557 326.5,281C 329.751,288.295 334.917,290.462 342,287.5C 345.157,288.677 348.323,288.677 351.5,287.5C 351.312,285.897 351.812,284.563 353,283.5C 353.333,283.833 353.667,284.167 354,284.5C 355.399,283.773 356.899,283.273 358.5,283C 359.369,280.632 361.035,279.132 363.5,278.5C 366.489,279.175 369.489,278.842 372.5,277.5C 371.313,276.481 370.313,275.314 369.5,274C 370.285,272.457 370.285,270.79 369.5,269C 369.859,266.454 370.859,264.287 372.5,262.5C 374.124,262.36 375.29,263.027 376,264.5C 378.241,261.155 378.908,257.489 378,253.5C 375.085,250.901 372.251,248.235 369.5,245.5C 368.534,243.604 368.201,241.604 368.5,239.5 Z"/></g>
<g><path style="opacity:0.955" fill="#2b62be" d="M 198.5,274.5 C 196.876,282.763 195.543,291.096 194.5,299.5C 194.096,303.643 193.096,307.643 191.5,311.5C 190.833,312.167 190.167,312.833 189.5,313.5C 191.776,306.375 193.109,299.042 193.5,291.5C 193.366,289.708 193.699,288.042 194.5,286.5C 195.833,282.5 197.167,278.5 198.5,274.5 Z"/></g>
<g><path style="opacity:0.243" fill="#143578" d="M 328.5,262.5 C 330.727,263.401 331.727,265.067 331.5,267.5C 323.015,276.652 315.682,286.652 309.5,297.5C 304.6,304.286 299.933,311.286 295.5,318.5C 294.833,318.833 294.167,319.167 293.5,319.5C 304.077,301.357 315.911,284.024 329,267.5C 329.384,265.803 329.218,264.137 328.5,262.5 Z"/></g>
<g><path style="opacity:0.055" fill="#1d4e99" d="M 377.5,249.5 C 378.922,250.925 380.589,251.925 382.5,252.5C 387.129,261.345 386.295,269.679 380,277.5C 361.933,293.768 343.433,309.435 324.5,324.5C 324.369,323.761 324.536,323.094 325,322.5C 329.36,318.968 333.527,315.301 337.5,311.5C 345.844,305.481 353.51,298.814 360.5,291.5C 368.705,286.135 375.871,279.469 382,271.5C 383.703,266.713 383.87,261.88 382.5,257C 380.632,254.632 378.965,252.132 377.5,249.5 Z"/></g>
<g><path style="opacity:1" fill="#0f6ef8" d="M 220.5,322.5 C 219.539,325.426 218.873,328.426 218.5,331.5C 218.25,333.674 217.25,335.341 215.5,336.5C 215.44,335.957 215.107,335.624 214.5,335.5C 211.678,340.801 209.345,346.301 207.5,352C 207.57,352.765 207.903,353.265 208.5,353.5C 208.5,354.167 208.167,354.5 207.5,354.5C 205.301,357.529 202.968,360.529 200.5,363.5C 202.707,356.304 205.373,349.304 208.5,342.5C 210.091,338.796 210.924,334.796 211,330.5C 212.255,329.789 213.421,328.956 214.5,328C 214.691,323.613 213.524,319.446 211,315.5C 208.645,316.808 206.145,317.808 203.5,318.5C 202.062,321.823 200.229,322.156 198,319.5C 196.667,322.167 194.667,324.167 192,325.5C 189.892,332.895 187.725,340.229 185.5,347.5C 184.833,348.833 184.167,350.167 183.5,351.5C 184.082,346.087 185.082,340.754 186.5,335.5C 188.505,328.435 189.505,321.102 189.5,313.5C 190.167,312.833 190.833,312.167 191.5,311.5C 194.686,308.516 196.353,304.849 196.5,300.5C 197.315,299.571 198.148,298.571 199,297.5C 200.156,298.993 200.99,298.826 201.5,297C 200.032,294.972 200.199,293.138 202,291.5C 203.682,292.865 203.849,294.365 202.5,296C 204.918,295.57 207.251,295.403 209.5,295.5C 211.651,297.258 213.817,298.924 216,300.5C 219.344,299.788 221.511,301.288 222.5,305C 221.546,306.908 220.879,308.908 220.5,311C 220.955,314.742 220.955,318.575 220.5,322.5 Z"/></g>
<g><path style="opacity:0.071" fill="#143f88" d="M 238.5,287.5 C 236.939,292.95 234.606,297.95 231.5,302.5C 233.024,298.595 234.357,294.595 235.5,290.5C 236.728,289.694 237.728,288.694 238.5,287.5 Z"/></g>
<g><path style="opacity:0.965" fill="#1a4ea8" d="M 229.5,303.5 C 230.167,303.5 230.833,303.5 231.5,303.5C 227.677,313.142 223.343,322.476 218.5,331.5C 218.873,328.426 219.539,325.426 220.5,322.5C 221.315,321.571 222.148,320.571 223,319.5C 223.186,316.964 223.686,314.631 224.5,312.5C 227.405,310.244 229.072,307.244 229.5,303.5 Z"/></g>
<g><path style="opacity:1" fill="#0867fc" d="M 208.5,342.5 C 209.833,338.833 209.833,335.167 208.5,331.5C 204.115,331.522 200.282,332.855 197,335.5C 195.989,334.663 194.822,334.33 193.5,334.5C 193.704,338.281 192.037,340.614 188.5,341.5C 188.346,343.97 187.346,345.97 185.5,347.5C 187.725,340.229 189.892,332.895 192,325.5C 194.667,324.167 196.667,322.167 198,319.5C 200.229,322.156 202.062,321.823 203.5,318.5C 206.145,317.808 208.645,316.808 211,315.5C 213.524,319.446 214.691,323.613 214.5,328C 213.421,328.956 212.255,329.789 211,330.5C 210.924,334.796 210.091,338.796 208.5,342.5 Z"/></g>
<g><path style="opacity:1" fill="#1e95f7" d="M 360.5,291.5 C 353.51,298.814 345.844,305.481 337.5,311.5C 335.801,311.34 334.134,311.506 332.5,312C 330.295,314.54 327.795,316.707 325,318.5C 324.517,319.448 324.351,320.448 324.5,321.5C 319.135,320.849 315.135,322.849 312.5,327.5C 311.549,326.674 310.549,326.508 309.5,327C 308.359,329.308 306.692,331.141 304.5,332.5C 301.302,332.455 298.135,332.455 295,332.5C 294.056,331.737 293.556,330.737 293.5,329.5C 294.547,327.944 295.214,326.277 295.5,324.5C 298.91,324.616 300.244,322.95 299.5,319.5C 298.5,319.5 297.5,319.5 296.5,319.5C 296.715,321.179 296.048,322.179 294.5,322.5C 294.833,321.167 295.167,319.833 295.5,318.5C 299.933,311.286 304.6,304.286 309.5,297.5C 309.766,301.571 309.433,305.571 308.5,309.5C 309.025,310.192 309.692,310.692 310.5,311C 307.805,314.08 305.138,316.414 302.5,318C 302.78,319.395 303.447,320.562 304.5,321.5C 307.662,320.798 310.995,319.631 314.5,318C 313.304,317.346 313.304,316.846 314.5,316.5C 316.134,316.968 317.3,317.968 318,319.5C 319.067,318.809 320.234,318.309 321.5,318C 322.833,316 324.167,314 325.5,312C 328.748,311.918 331.081,310.418 332.5,307.5C 335.865,306.968 338.198,305.134 339.5,302C 346.753,298.878 353.753,295.378 360.5,291.5 Z"/></g>
<g><path style="opacity:0.969" fill="#2d5ea6" d="M 295.5,318.5 C 295.167,319.833 294.833,321.167 294.5,322.5C 292.618,325.623 290.285,328.289 287.5,330.5C 286.277,333.398 284.277,335.731 281.5,337.5C 285.007,331.148 289.007,325.148 293.5,319.5C 294.167,319.167 294.833,318.833 295.5,318.5 Z"/></g>
<g><path style="opacity:0.827" fill="#1f439c" d="M 193.5,291.5 C 193.109,299.042 191.776,306.375 189.5,313.5C 189.505,321.102 188.505,328.435 186.5,335.5C 185.883,335.611 185.383,335.944 185,336.5C 183.84,340.824 182.674,345.158 181.5,349.5C 181.253,350.713 180.586,351.38 179.5,351.5C 184.421,331.439 189.087,311.439 193.5,291.5 Z"/></g>
<g><path style="opacity:1" fill="#259cf7" d="M 337.5,311.5 C 333.527,315.301 329.36,318.968 325,322.5C 324.536,323.094 324.369,323.761 324.5,324.5C 322.729,326.935 320.396,328.602 317.5,329.5C 315.284,330.203 313.451,331.536 312,333.5C 311.275,331.842 310.108,331.342 308.5,332C 308.554,333.351 308.054,334.518 307,335.5C 304.088,337.066 300.921,337.899 297.5,338C 296.833,339 296.167,340 295.5,341C 292.914,342.311 290.414,343.811 288,345.5C 287.309,343.109 286.309,343.109 285,345.5C 285.011,350.159 283.011,353.492 279,355.5C 276.935,354.372 276.268,352.706 277,350.5C 280.691,346.116 284.024,341.449 287,336.5C 287.495,334.527 287.662,332.527 287.5,330.5C 290.285,328.289 292.618,325.623 294.5,322.5C 296.048,322.179 296.715,321.179 296.5,319.5C 297.5,319.5 298.5,319.5 299.5,319.5C 300.244,322.95 298.91,324.616 295.5,324.5C 295.214,326.277 294.547,327.944 293.5,329.5C 293.556,330.737 294.056,331.737 295,332.5C 298.135,332.455 301.302,332.455 304.5,332.5C 306.692,331.141 308.359,329.308 309.5,327C 310.549,326.508 311.549,326.674 312.5,327.5C 315.135,322.849 319.135,320.849 324.5,321.5C 324.351,320.448 324.517,319.448 325,318.5C 327.795,316.707 330.295,314.54 332.5,312C 334.134,311.506 335.801,311.34 337.5,311.5 Z"/></g>
<g><path style="opacity:1" fill="#095cfa" d="M 208.5,342.5 C 205.373,349.304 202.707,356.304 200.5,363.5C 196.571,373.515 192.237,383.182 187.5,392.5C 187.868,386.742 189.702,381.408 193,376.5C 193.746,372.637 194.913,368.971 196.5,365.5C 193.55,363.2 192.883,360.366 194.5,357C 193.488,351.025 192.488,351.025 191.5,357C 191.585,358.107 191.919,359.107 192.5,360C 190.718,360.814 189.218,361.981 188,363.5C 187.667,362.833 187.333,362.167 187,361.5C 187.698,363.764 187.198,365.597 185.5,367C 186.428,367.388 187.095,368.055 187.5,369C 182.048,381.968 179.714,381.468 180.5,367.5C 181.751,362.245 182.751,356.911 183.5,351.5C 184.167,350.167 184.833,348.833 185.5,347.5C 187.346,345.97 188.346,343.97 188.5,341.5C 192.037,340.614 193.704,338.281 193.5,334.5C 194.822,334.33 195.989,334.663 197,335.5C 200.282,332.855 204.115,331.522 208.5,331.5C 209.833,335.167 209.833,338.833 208.5,342.5 Z"/></g>
<g><path style="opacity:1" fill="#3a9aeb" d="M 317.5,329.5 C 317.586,330.496 317.252,331.329 316.5,332C 308.207,338.29 300.207,344.79 292.5,351.5C 290.932,350.527 289.265,350.36 287.5,351C 288.647,353.853 287.814,354.686 285,353.5C 283.278,353.611 283.112,354.111 284.5,355C 283.552,355.483 282.552,355.649 281.5,355.5C 281.5,356.5 281.5,357.5 281.5,358.5C 280.127,358.343 278.793,358.51 277.5,359C 277.957,359.414 278.291,359.914 278.5,360.5C 273.64,360.424 270.307,362.591 268.5,367C 266.866,367.494 265.199,367.66 263.5,367.5C 265.479,363.542 267.479,359.542 269.5,355.5C 272.659,351.865 275.826,348.198 279,344.5C 280.118,342.235 280.951,339.901 281.5,337.5C 284.277,335.731 286.277,333.398 287.5,330.5C 287.662,332.527 287.495,334.527 287,336.5C 284.024,341.449 280.691,346.116 277,350.5C 276.268,352.706 276.935,354.372 279,355.5C 283.011,353.492 285.011,350.159 285,345.5C 286.309,343.109 287.309,343.109 288,345.5C 290.414,343.811 292.914,342.311 295.5,341C 296.167,340 296.833,339 297.5,338C 300.921,337.899 304.088,337.066 307,335.5C 308.054,334.518 308.554,333.351 308.5,332C 310.108,331.342 311.275,331.842 312,333.5C 313.451,331.536 315.284,330.203 317.5,329.5 Z"/></g>
<g><path style="opacity:0.125" fill="#234685" d="M 281.5,337.5 C 280.951,339.901 280.118,342.235 279,344.5C 275.826,348.198 272.659,351.865 269.5,355.5C 272.511,348.803 276.511,342.803 281.5,337.5 Z"/></g>
<g><path style="opacity:0.227" fill="#153ea6" d="M 215.5,336.5 C 215.657,337.873 215.49,339.207 215,340.5C 212.546,344.697 210.38,349.03 208.5,353.5C 207.903,353.265 207.57,352.765 207.5,352C 209.345,346.301 211.678,340.801 214.5,335.5C 215.107,335.624 215.44,335.957 215.5,336.5 Z"/></g>
<g><path style="opacity:0.082" fill="#12297c" d="M 179.5,352.5 C 180.139,353.097 180.472,353.93 180.5,355C 178.911,361.764 177.745,368.598 177,375.5C 176.243,377.315 175.41,378.981 174.5,380.5C 175.848,371.109 177.514,361.776 179.5,352.5 Z"/></g>
<g><path style="opacity:0.996" fill="#5c98d8" d="M 292.5,351.5 C 286.833,356.167 281.167,360.833 275.5,365.5C 271.637,366.694 268.637,369.027 266.5,372.5C 262.916,374.739 259.583,377.406 256.5,380.5C 255.386,379.277 255.219,377.944 256,376.5C 258.042,373.06 260.542,370.06 263.5,367.5C 265.199,367.66 266.866,367.494 268.5,367C 270.307,362.591 273.64,360.424 278.5,360.5C 278.291,359.914 277.957,359.414 277.5,359C 278.793,358.51 280.127,358.343 281.5,358.5C 281.5,357.5 281.5,356.5 281.5,355.5C 282.552,355.649 283.552,355.483 284.5,355C 283.112,354.111 283.278,353.611 285,353.5C 287.814,354.686 288.647,353.853 287.5,351C 289.265,350.36 290.932,350.527 292.5,351.5 Z"/></g>
<g><path style="opacity:0.067" fill="#2e5495" d="M 275.5,365.5 C 272.792,368.209 269.792,370.542 266.5,372.5C 268.637,369.027 271.637,366.694 275.5,365.5 Z"/></g>
<g><path style="opacity:0.941" fill="#2551c2" d="M 186.5,335.5 C 185.082,340.754 184.082,346.087 183.5,351.5C 182.751,356.911 181.751,362.245 180.5,367.5C 178.603,374.343 176.937,381.343 175.5,388.5C 174.883,388.611 174.383,388.944 174,389.5C 171.984,404.232 168.484,418.232 163.5,431.5C 164.051,428.193 164.384,424.86 164.5,421.5C 167.588,412.817 169.922,403.817 171.5,394.5C 171.265,389.454 172.265,384.787 174.5,380.5C 175.41,378.981 176.243,377.315 177,375.5C 177.745,368.598 178.911,361.764 180.5,355C 180.472,353.93 180.139,353.097 179.5,352.5C 179.5,352.167 179.5,351.833 179.5,351.5C 180.586,351.38 181.253,350.713 181.5,349.5C 182.674,345.158 183.84,340.824 185,336.5C 185.383,335.944 185.883,335.611 186.5,335.5 Z"/></g>
<g><path style="opacity:0.922" fill="#3a497d" d="M 269.5,355.5 C 267.479,359.542 265.479,363.542 263.5,367.5C 260.542,370.06 258.042,373.06 256,376.5C 255.219,377.944 255.386,379.277 256.5,380.5C 259.583,377.406 262.916,374.739 266.5,372.5C 262.113,377.391 257.446,382.224 252.5,387C 250.763,387.612 249.763,386.946 249.5,385C 255.318,374.512 261.984,364.679 269.5,355.5 Z"/></g>
<g><path style="opacity:0.875" fill="#174dc4" d="M 207.5,354.5 C 201.95,368.596 195.617,382.262 188.5,395.5C 186.348,399.301 184.015,402.967 181.5,406.5C 182.52,401.448 184.52,396.781 187.5,392.5C 192.237,383.182 196.571,373.515 200.5,363.5C 202.968,360.529 205.301,357.529 207.5,354.5 Z"/></g>
<g><path style="opacity:1" fill="#0c56f6" d="M 187.5,392.5 C 184.52,396.781 182.52,401.448 181.5,406.5C 181.5,406.833 181.5,407.167 181.5,407.5C 179.118,409.893 176.952,412.559 175,415.5C 173.589,417.65 172.755,419.984 172.5,422.5C 171.5,422.5 170.5,422.5 169.5,422.5C 170.413,416.116 171.913,409.783 174,403.5C 174.748,398.519 175.248,393.519 175.5,388.5C 176.937,381.343 178.603,374.343 180.5,367.5C 179.714,381.468 182.048,381.968 187.5,369C 187.095,368.055 186.428,367.388 185.5,367C 187.198,365.597 187.698,363.764 187,361.5C 187.333,362.167 187.667,362.833 188,363.5C 189.218,361.981 190.718,360.814 192.5,360C 191.919,359.107 191.585,358.107 191.5,357C 192.488,351.025 193.488,351.025 194.5,357C 192.883,360.366 193.55,363.2 196.5,365.5C 194.913,368.971 193.746,372.637 193,376.5C 189.702,381.408 187.868,386.742 187.5,392.5 Z"/></g>
<g><path style="opacity:0.996" fill="#235ae0" d="M 175.5,388.5 C 175.248,393.519 174.748,398.519 174,403.5C 171.913,409.783 170.413,416.116 169.5,422.5C 170.5,422.5 171.5,422.5 172.5,422.5C 172.755,419.984 173.589,417.65 175,415.5C 176.952,412.559 179.118,409.893 181.5,407.5C 179.145,413.874 175.979,419.874 172,425.5C 170.937,431.62 168.77,437.286 165.5,442.5C 163.753,442.973 162.086,443.307 160.5,443.5C 161.132,439.298 162.132,435.298 163.5,431.5C 168.484,418.232 171.984,404.232 174,389.5C 174.383,388.944 174.883,388.611 175.5,388.5 Z"/></g>
<g><path style="opacity:0.129" fill="#122680" d="M 171.5,394.5 C 169.922,403.817 167.588,412.817 164.5,421.5C 166.077,412.189 168.41,403.189 171.5,394.5 Z"/></g>
<g><path style="opacity:0.341" fill="#2241a4" d="M 188.5,395.5 C 180.129,415.247 171.462,434.914 162.5,454.5C 161.603,453.402 160.77,453.402 160,454.5C 159.517,453.552 159.351,452.552 159.5,451.5C 159.401,448.763 159.735,446.096 160.5,443.5C 162.086,443.307 163.753,442.973 165.5,442.5C 168.77,437.286 170.937,431.62 172,425.5C 175.979,419.874 179.145,413.874 181.5,407.5C 181.5,407.167 181.5,406.833 181.5,406.5C 184.015,402.967 186.348,399.301 188.5,395.5 Z"/></g>
<g><path style="opacity:0.094" fill="#172c7f" d="M 164.5,421.5 C 164.384,424.86 164.051,428.193 163.5,431.5C 162.132,435.298 161.132,439.298 160.5,443.5C 159.735,446.096 159.401,448.763 159.5,451.5C 158.662,451.158 158.328,450.492 158.5,449.5C 159.582,439.855 161.582,430.521 164.5,421.5 Z"/></g>
<g><path style="opacity:0.588" fill="#272d62" d="M 158.5,449.5 C 158.328,450.492 158.662,451.158 159.5,451.5C 159.351,452.552 159.517,453.552 160,454.5C 160.77,453.402 161.603,453.402 162.5,454.5C 157.785,465.327 155.952,464.66 157,452.5C 157.232,451.263 157.732,450.263 158.5,449.5 Z"/></g>
</svg>
